HIERARCHY
ROOT joint_Root
{
	OFFSET 0.0 0.0 0.0
	CHANNELS 6 Xposition Yposition Zposition Zrotation Xrotation Yrotation 
	JOINT Hips
	{
		OFFSET -17.1583 93.1646 452.98
		CHANNELS 6 Xposition Yposition Zposition Zrotation Xrotation Yrotation 
		JOINT Spine
		{
			OFFSET 15.7357 0.0 0.0
			CHANNELS 6 Xposition Yposition Zposition Zrotation Xrotation Yrotation 
			JOINT Chest
			{
				OFFSET 8.98455 -0.406207 0.0
				CHANNELS 6 Xposition Yposition Zposition Zrotation Xrotation Yrotation 
				JOINT Neck
				{
					OFFSET 16.3773 0.0 0.0
					CHANNELS 6 Xposition Yposition Zposition Zrotation Xrotation Yrotation 
					JOINT Head
					{
						OFFSET 6.45672 0.0 0.0
						CHANNELS 6 Xposition Yposition Zposition Zrotation Xrotation Yrotation 
						End Site
						{
							OFFSET 0.0 0.0 0.0
						}
					}
				}
				JOINT Shoulder_L
				{
					OFFSET 12.9942 -0.242716 4.98039
					CHANNELS 6 Xposition Yposition Zposition Zrotation Xrotation Yrotation 
					JOINT UpperArm_L
					{
						OFFSET 5.34809 0.0 0.0
						CHANNELS 6 Xposition Yposition Zposition Zrotation Xrotation Yrotation 
						JOINT LowerArm_L
						{
							OFFSET 24.3286 1.87007e-05 0.0
							CHANNELS 6 Xposition Yposition Zposition Zrotation Xrotation Yrotation 
							JOINT Hand_L
							{
								OFFSET 22.2916 0.0 0.0
								CHANNELS 6 Xposition Yposition Zposition Zrotation Xrotation Yrotation 
								End Site
								{
									OFFSET 0.0 0.0 0.0
								}
							}
						}
					}
				}
				JOINT Shoulder_R
				{
					OFFSET 12.9945 -0.242716 -4.98039
					CHANNELS 6 Xposition Yposition Zposition Zrotation Xrotation Yrotation 
					JOINT UpperArm_R
					{
						OFFSET -5.34813 0.0 0.0
						CHANNELS 6 Xposition Yposition Zposition Zrotation Xrotation Yrotation 
						JOINT LowerArm_R
						{
							OFFSET -24.3289 0.000322201 0.0
							CHANNELS 6 Xposition Yposition Zposition Zrotation Xrotation Yrotation 
							JOINT Hand_R
							{
								OFFSET -22.2915 -0.000108084 0.0
								CHANNELS 6 Xposition Yposition Zposition Zrotation Xrotation Yrotation 
								End Site
								{
									OFFSET 0.0 0.0 0.0
								}
							}
						}
					}
				}
			}
		}
		JOINT UpperLeg_L
		{
			OFFSET -2.19248 -6.46944 0.0
			CHANNELS 6 Xposition Yposition Zposition Zrotation Xrotation Yrotation 
			JOINT LowerLeg_L
			{
				OFFSET 39.0811 0.0 -1.23785e-05
				CHANNELS 6 Xposition Yposition Zposition Zrotation Xrotation Yrotation 
				JOINT Foot_L
				{
					OFFSET 40.9854 0.0 -1.26872e-05
					CHANNELS 6 Xposition Yposition Zposition Zrotation Xrotation Yrotation 
					JOINT Toes_L
					{
						OFFSET 11.7543 0.0 0.0
						CHANNELS 6 Xposition Yposition Zposition Zrotation Xrotation Yrotation 
						End Site
						{
							OFFSET 0.0 0.0 0.0
						}
					}
				}
			}
		}
		JOINT UpperLeg_R
		{
			OFFSET -2.19251 6.46944 0.0
			CHANNELS 6 Xposition Yposition Zposition Zrotation Xrotation Yrotation 
			JOINT LowerLeg_R
			{
				OFFSET -39.0811 -0.00228153 -0.0401928
				CHANNELS 6 Xposition Yposition Zposition Zrotation Xrotation Yrotation 
				JOINT Foot_R
				{
					OFFSET -40.9854 0.0 0.0
					CHANNELS 6 Xposition Yposition Zposition Zrotation Xrotation Yrotation 
					JOINT Toes_R
					{
						OFFSET -11.7543 0.0 0.0
						CHANNELS 6 Xposition Yposition Zposition Zrotation Xrotation Yrotation 
						End Site
						{
							OFFSET 0.0 0.0 0.0
						}
					}
				}
			}
		}
	}
}
MOTION
Frames:	5
Frame Time:	0.0333333
0.000000 0.000000 0.000000 0.000000 0.000000 -0.000000 -4.420420 91.865900 -2.015510 83.325400 -1.259880 3.624700 15.735700 0.000005 -0.000001 73.078700 86.737900 -70.073200 8.984550 -0.406207 -0.000000 -1.461370 -2.140300 5.982480 16.377300 -0.000001 -0.000001 10.002000 4.771180 4.582690 6.456720 -0.000001 -0.000000 3.388920 8.320430 5.106970 12.994200 -0.242716 4.980390 -92.461300 7.329620 -71.379700 5.348090 -0.000007 -0.000001 -74.265400 29.447400 2.131550 24.328600 0.000019 0.000005 13.074700 28.433300 -26.001400 22.291600 -0.000001 0.000005 -4.563660 5.041870 6.415910 12.994500 -0.242716 -4.980390 87.774600 6.701380 -71.582200 -5.348130 -0.000001 -0.000004 -63.294300 4.659600 -6.132670 -24.328900 0.000322 -0.000009 26.531200 -22.632800 -127.624000 -22.291500 -0.000108 -0.000004 64.029000 5.675350 -23.887500 -2.192480 -6.469440 -0.000000 -169.912000 -0.609880 -5.800790 39.081100 -0.000007 -0.000012 0.420150 -0.739910 29.590700 40.985400 -0.000006 -0.000013 0.256841 9.323970 -76.147200 11.754300 -0.000000 0.000003 0.000698 0.154905 -10.294500 -2.192510 6.469440 -0.000001 -168.284000 7.521700 -177.908000 -39.081100 -0.002282 -0.040193 0.129633 -0.460619 15.334000 -40.985400 0.000008 0.000006 6.725910 1.986400 -70.175800 -11.754300 -0.000006 -0.000006 -0.010645 0.276065 -5.356280
0.000000 0.000000 0.000000 0.000000 0.000000 -0.000000 -4.433770 91.862500 -2.021160 83.306900 -1.220620 3.609570 15.735700 0.000005 -0.000001 73.274500 86.739100 -70.288000 8.984550 -0.406207 -0.000000 -1.458220 -2.116680 5.944860 16.377300 -0.000001 -0.000001 10.147400 4.745730 4.647590 6.456720 -0.000001 -0.000000 3.337790 8.272440 5.230930 12.994200 -0.242716 4.980390 -92.455700 7.317630 -71.391100 5.348090 -0.000007 -0.000001 -74.239600 29.448400 2.051790 24.328600 0.000019 0.000005 13.056300 28.425900 -25.973800 22.291600 -0.000001 0.000005 -4.382230 5.045310 6.340480 12.994500 -0.242716 -4.980390 87.780000 6.675340 -71.556700 -5.348130 -0.000001 -0.000004 -63.761800 3.673890 -6.353090 -24.328900 0.000322 -0.000009 23.763000 -20.273000 -128.201000 -22.291500 -0.000108 -0.000004 63.936000 5.680580 -22.385200 -2.192480 -6.469440 -0.000000 -169.885000 -0.551882 -5.842440 39.081100 -0.000007 -0.000012 0.420647 -0.739848 29.621900 40.985400 -0.000006 -0.000013 0.241514 9.318230 -76.175100 11.754300 -0.000000 0.000003 0.000613 0.156581 -10.226400 -2.192510 6.469440 -0.000001 -168.265000 7.636520 -177.926000 -39.081100 -0.002282 -0.040193 0.129720 -0.461088 15.329100 -40.985400 0.000008 0.000006 6.743330 2.037920 -70.191300 -11.754300 -0.000006 -0.000006 -0.010211 0.272877 -5.486670
0.000000 0.000000 0.000000 0.000000 0.000000 -0.000000 -4.439580 91.855600 -2.017530 83.312100 -1.197570 3.605540 15.735700 0.000005 -0.000001 73.401800 86.746600 -70.440500 8.984550 -0.406207 -0.000000 -1.469520 -2.096790 5.894480 16.377300 -0.000001 -0.000001 10.185500 4.697360 4.665700 6.456720 -0.000001 -0.000000 3.414660 8.241880 5.330630 12.994200 -0.242716 4.980390 -92.461600 7.333200 -71.386500 5.348090 -0.000007 -0.000001 -74.191200 29.415300 2.023400 24.328600 0.000019 0.000005 13.163200 28.500900 -26.110200 22.291600 -0.000001 0.000005 -4.222000 5.041650 6.420560 12.994500 -0.242716 -4.980390 87.819000 6.550310 -71.538500 -5.348130 -0.000001 -0.000004 -64.882000 2.063270 -6.623930 -24.328900 0.000322 -0.000009 19.469100 -16.634800 -128.999000 -22.291500 -0.000108 -0.000004 63.380300 5.676110 -18.470900 -2.192480 -6.469440 -0.000000 -169.890000 -0.541351 -5.871280 39.081100 -0.000007 -0.000012 0.417586 -0.733644 29.649400 40.985400 -0.000006 -0.000013 0.248646 9.321760 -76.126800 11.754300 -0.000000 0.000003 0.000646 0.155937 -10.252600 -2.192510 6.469440 -0.000001 -168.274000 7.656760 -177.969000 -39.081100 -0.002282 -0.040193 0.130497 -0.461654 15.400900 -40.985400 0.000008 0.000006 6.741510 2.036980 -70.203000 -11.754300 -0.000006 -0.000006 -0.010423 0.274441 -5.422710
0.000000 0.000000 0.000000 0.000000 0.000000 -0.000000 -4.444010 91.864000 -2.018200 83.297100 -1.144450 3.587770 15.735700 0.000005 -0.000001 73.415100 86.754400 -70.469600 8.984550 -0.406207 -0.000000 -1.484590 -2.090010 5.862860 16.377300 -0.000001 -0.000001 10.237700 4.698990 4.645440 6.456720 -0.000001 -0.000000 3.429120 8.256190 5.353090 12.994200 -0.242716 4.980390 -92.465300 7.334110 -71.362400 5.348090 -0.000007 -0.000001 -74.173800 29.414800 1.960050 24.328600 0.000019 0.000005 13.067000 28.291800 -26.091100 22.291600 -0.000001 0.000005 -4.244050 5.041770 6.418090 12.994500 -0.242716 -4.980390 87.857200 6.421300 -71.501700 -5.348130 -0.000001 -0.000004 -66.114800 0.396589 -6.959310 -24.328900 0.000322 -0.000009 13.882300 -11.976000 -130.015000 -22.291500 -0.000108 -0.000004 62.998400 5.629470 -13.321300 -2.192480 -6.469440 -0.000000 -169.864000 -0.533515 -5.884700 39.081100 -0.000007 -0.000012 0.416973 -0.733535 29.616800 40.985400 -0.000006 -0.000013 0.244439 9.356050 -76.131100 11.754300 -0.000000 0.000003 0.000669 0.155490 -10.270700 -2.192510 6.469440 -0.000001 -168.241000 7.688390 -177.927000 -39.081100 -0.002282 -0.040193 0.128902 -0.459955 15.270400 -40.985400 0.000008 0.000006 6.748530 2.009140 -70.162200 -11.754300 -0.000006 -0.000006 -0.010509 0.275072 -5.396890
0.000000 0.000000 0.000000 0.000000 0.000000 -0.000000 -4.449830 91.863400 -2.016270 83.285900 -1.120190 3.585680 15.735700 0.000005 -0.000001 73.426500 86.761000 -70.480400 8.984550 -0.406207 -0.000000 -1.497050 -2.085360 5.863870 16.377300 -0.000001 -0.000001 10.260100 4.713030 4.544400 6.456720 -0.000001 -0.000000 3.462620 8.267470 5.296540 12.994200 -0.242716 4.980390 -92.471600 7.364370 -71.388900 5.348090 -0.000007 -0.000001 -74.153300 29.498700 1.927970 24.328600 0.000019 0.000005 13.090500 28.337800 -26.099400 22.291600 -0.000001 0.000005 -4.301340 5.040620 6.443260 12.994500 -0.242716 -4.980390 87.868700 6.385230 -71.497800 -5.348130 -0.000001 -0.000004 -66.923500 -0.794255 -7.318680 -24.328900 0.000322 -0.000009 5.514150 -4.872060 -131.342000 -22.291500 -0.000108 -0.000004 64.225700 5.573000 -9.872450 -2.192480 -6.469440 -0.000000 -169.853000 -0.567268 -5.899930 39.081100 -0.000007 -0.000012 0.422044 -0.742026 29.631100 40.985400 -0.000006 -0.000013 0.254393 9.386610 -76.131900 11.754300 -0.000000 0.000003 0.000652 0.155819 -10.257400 -2.192510 6.469440 -0.000001 -168.227000 7.679050 -177.929000 -39.081100 -0.002282 -0.040193 0.128279 -0.457848 15.264800 -40.985400 0.000008 0.000006 6.745060 1.989580 -70.166700 -11.754300 -0.000006 -0.000006 -0.010534 0.275251 -5.389550
